<svg xmlns="http://www.w3.org/2000/svg" xmlns:xlink="http://www.w3.org/1999/xlink" version="1.1" id="Layer_1" x="0px" y="0px" width="100px" height="100px" viewBox="0.5 -0.5 100 100" enable-background="new 0.5 -0.5 100 100" xml:space="preserve">
<path fill="#000000" d="M93.556,42.556c-3.353,0-6.159,2.39-6.804,5.557h-8.545c-0.326-6.623-2.959-12.621-7.129-17.227l6.155-6.152  c1.098,0.727,2.409,1.155,3.822,1.155c3.829,0,6.944-3.115,6.944-6.944C88,15.116,84.885,12,81.056,12s-6.944,3.116-6.944,6.944  c0,1.414,0.429,2.727,1.158,3.825l-6.155,6.152c-4.604-4.168-10.604-6.801-17.226-7.129v-8.545c3.166-0.646,5.556-3.451,5.556-6.804  c0-3.829-3.115-6.944-6.944-6.944s-6.944,3.116-6.944,6.944c0,3.353,2.39,6.158,5.556,6.804v8.545  c-6.623,0.328-12.621,2.96-17.227,7.129l-6.153-6.152c0.728-1.099,1.157-2.412,1.157-3.825c0-3.829-3.115-6.944-6.944-6.944  C16.116,12,13,15.116,13,18.944c0,3.829,3.116,6.944,6.944,6.944c1.413,0,2.725-0.428,3.823-1.155l6.154,6.152  c-4.168,4.606-6.801,10.604-7.129,17.227h-8.543c-0.645-3.167-3.451-5.557-6.804-5.557c-3.829,0-6.944,3.115-6.944,6.944  s3.116,6.944,6.944,6.944c3.353,0,6.158-2.39,6.804-5.554h8.544c0.328,6.621,2.96,12.62,7.129,17.224l-6.154,6.155  c-1.098-0.729-2.411-1.158-3.824-1.158c-3.829,0-6.944,3.115-6.944,6.944S16.116,87,19.944,87c3.829,0,6.944-3.115,6.944-6.944  c0-1.413-0.429-2.725-1.156-3.822l6.154-6.155c4.605,4.17,10.603,6.801,17.225,7.129v8.545c-3.166,0.646-5.556,3.451-5.556,6.804  c0,3.829,3.115,6.944,6.944,6.944s6.944-3.115,6.944-6.944c0-3.353-2.39-6.158-5.556-6.804v-8.545  c6.622-0.328,12.619-2.959,17.226-7.129l6.153,6.155c-0.728,1.098-1.156,2.409-1.156,3.822c0,3.829,3.115,6.944,6.944,6.944  S88,83.885,88,80.056s-3.115-6.944-6.944-6.944c-1.413,0-2.727,0.429-3.825,1.156l-6.152-6.153  c4.168-4.604,6.801-10.603,7.129-17.224h8.545c0.646,3.164,3.451,5.554,6.804,5.554c3.829,0,6.944-3.115,6.944-6.944  S97.385,42.556,93.556,42.556z M81.056,14.778c2.298,0,4.167,1.869,4.167,4.167c0,2.298-1.869,4.167-4.167,4.167  s-4.167-1.869-4.167-4.167C76.889,16.647,78.758,14.778,81.056,14.778z M19.944,23.111c-2.297,0-4.167-1.869-4.167-4.167  c0-2.297,1.869-4.167,4.167-4.167c2.298,0,4.167,1.869,4.167,4.167C24.111,21.242,22.242,23.111,19.944,23.111z M7.444,53.667  c-2.297,0-4.167-1.869-4.167-4.167s1.869-4.167,4.167-4.167c2.298,0,4.167,1.869,4.167,4.167S9.742,53.667,7.444,53.667z   M19.944,84.223c-2.297,0-4.167-1.869-4.167-4.167s1.869-4.167,4.167-4.167c2.298,0,4.167,1.869,4.167,4.167  S22.242,84.223,19.944,84.223z M46.333,6.444c0-2.297,1.869-4.167,4.167-4.167s4.167,1.869,4.167,4.167  c0,2.298-1.869,4.167-4.167,4.167S46.333,8.742,46.333,6.444z M54.667,92.556c0,2.298-1.869,4.167-4.167,4.167  s-4.167-1.869-4.167-4.167s1.869-4.167,4.167-4.167S54.667,90.258,54.667,92.556z M53.277,68.944h-5.555v-5.556h5.555V68.944z   M57.354,52.335c-2.368,1.853-4.077,3.192-4.077,6.888h-5.555c0-6.402,3.587-9.211,6.207-11.262  c2.374-1.858,3.516-2.864,3.516-5.405c0-4.868-2.076-6.944-6.944-6.944c-4.868,0-6.944,2.076-6.944,6.944H38  c0-7.944,4.556-12.5,12.5-12.5c7.944,0,12.5,4.556,12.5,12.5C63,47.915,59.869,50.365,57.354,52.335z M81.056,75.889  c2.298,0,4.167,1.869,4.167,4.167s-1.869,4.167-4.167,4.167s-4.167-1.869-4.167-4.167S78.758,75.889,81.056,75.889z M93.556,53.667  c-2.298,0-4.167-1.869-4.167-4.167s1.869-4.167,4.167-4.167s4.167,1.869,4.167,4.167S95.854,53.667,93.556,53.667z"/>
</svg>