<svg xmlns="http://www.w3.org/2000/svg" xmlns:xlink="http://www.w3.org/1999/xlink" version="1.1" x="0px" y="0px" width="100px" height="100px" viewBox="0 0 100 100" enable-background="new 0 0 100 100" xml:space="preserve">
<g id="Captions">
</g>
<g id="Your_Icon">
	<g>
		<path d="M21.737,78.267c-5.393,0-9.774-7.428-9.774-16.581c0-9.152,4.382-16.572,9.774-16.572h17.942    c-5.399,0-9.774,7.42-9.774,16.572c0,9.153,4.375,16.581,9.774,16.581H21.737z"/>
		<path d="M39.699,80.267c-0.007-0.001-0.013-0.001-0.02,0H21.737c-6.603,0-11.774-8.162-11.774-18.581    c0-10.414,5.172-18.572,11.774-18.572h17.942c1.104,0,2,0.896,2,2s-0.896,2-2,2c-4.214,0-7.774,6.673-7.774,14.572    c0,7.903,3.56,14.581,7.774,14.581c0.003-0.001,0.007,0,0.01,0h0.01c1.104,0,2,0.896,2,2S40.803,80.267,39.699,80.267z     M21.737,47.113c-4.214,0-7.774,6.673-7.774,14.572c0,7.903,3.56,14.581,7.774,14.581h10.562    c-2.694-3.377-4.394-8.608-4.394-14.581c0-5.97,1.699-11.197,4.393-14.572H21.737z"/>
	</g>
	<g>
		<path d="M53.594,84.365c-3.22,0-6.223-0.358-7.882-0.742c-7.058-1.631-9.421-8.422-9.685-11.784    c-0.086-1.102,0.736-2.063,1.837-2.15c1.106-0.086,2.063,0.736,2.15,1.838c0.024,0.271,0.66,6.827,6.599,8.2    c4.37,1.012,13.118,0.955,15.651-1.023c0.868-0.679,2.127-0.526,2.808,0.345c0.68,0.87,0.525,2.127-0.345,2.808    C62.281,83.767,57.756,84.365,53.594,84.365z"/>
	</g>
	<g>
		<path d="M52.971,65.362c-0.947,0-1.788-0.675-1.965-1.639c-0.2-1.086,0.52-2.129,1.605-2.328c0.206-0.041,5.39-1.135,7.649-7.205    c2.714-7.297-2.622-14.184-2.676-14.252c-0.582-0.736-0.576-1.783,0.019-2.51c2.465-3.013,2.944-5.913,2.912-7.815    c-0.015-0.696-0.319-4.403-4.911-8.178c-2.491-2.039-3.475-2.079-4.823-1.465c0.085,0.681,0.684,2.074,1.059,2.949    c0.715,1.666,1.454,3.389,1.407,4.939c-0.072,2.546-0.225,7.849-4.922,14.274c-4.61,6.341-13.512,7.952-13.888,8.018    c-1.091,0.183-2.124-0.539-2.313-1.628c-0.189-1.088,0.538-2.122,1.625-2.312c0.098-0.018,7.701-1.423,11.344-6.434    c3.967-5.427,4.085-9.563,4.156-12.035c0.02-0.669-0.593-2.098-1.085-3.245c-1.085-2.528-2.725-6.351,0.557-7.975    c3.715-1.847,6.455-0.606,9.419,1.82c5.799,4.767,6.345,9.774,6.375,11.196c0.031,1.905-0.331,5.47-2.898,9.201    c1.743,2.74,5.142,9.454,2.392,16.845c-3.073,8.26-10.366,9.688-10.675,9.744C53.212,65.352,53.09,65.362,52.971,65.362z"/>
	</g>
	<g>
		<g>
			<path d="M79.199,67.396c-4.119,0-8.849-1.076-10.654-3.073c-1.554-1.711-2.231-5.396-0.716-7.941     c0.833-1.396,2.997-3.556,8.149-2.29c1.073,0.264,1.729,1.347,1.466,2.419c-0.265,1.073-1.352,1.725-2.419,1.466     c-1.138-0.278-3.138-0.591-3.759,0.452c-0.601,1.008-0.135,2.793,0.242,3.208c1.171,1.296,8.342,2.52,11.391,1.258     c1.085-0.445,2.475-1.266,2.953-2.652c0.451-1.308,0.077-3.032-1.112-5.125c-0.545-0.961-0.209-2.182,0.751-2.728     c0.964-0.544,2.182-0.21,2.728,0.751c1.781,3.137,2.257,5.965,1.415,8.407c-0.765,2.215-2.566,3.96-5.211,5.046     C83.112,67.135,81.229,67.396,79.199,67.396z"/>
		</g>
		<g>
			<path d="M78.637,58.356c-4.04,0.001-8.673-1.206-10.426-3.147c-1.509-1.68-2.182-5.118-0.785-7.566     c0.786-1.378,2.871-3.538,7.996-2.507c1.083,0.218,1.785,1.272,1.567,2.354c-0.219,1.083-1.274,1.781-2.354,1.567     c-0.92-0.184-3.125-0.499-3.734,0.568c-0.522,0.915-0.071,2.513,0.283,2.907c1.166,1.291,8.359,2.624,10.824,1.291     c1.769-0.957,3.174-4.287,2.408-7.31c-0.959-3.783-4.94-5.867-11.212-5.867c-1.104,0-2-0.896-2-2s0.896-2,2-2     c11.587,0,14.413,6.214,15.09,8.885c1.159,4.576-0.807,9.874-4.382,11.81C82.622,58.039,80.707,58.356,78.637,58.356z"/>
		</g>
		<g>
			<path d="M74.798,77.117c-3.615,0-7.478-1.158-9.218-3.084c-1.576-1.737-2.339-5.649-0.907-8.48     c0.73-1.446,2.659-3.804,7.336-3.317c1.099,0.112,1.898,1.095,1.785,2.193c-0.112,1.098-1.081,1.908-2.193,1.785     c-2.655-0.271-3.182,0.793-3.358,1.143c-0.686,1.357-0.142,3.502,0.303,3.992c1.337,1.479,6.617,2.412,9.414,1.264     c1.14-0.474,2.368-3.887,2.136-4.933c-0.315-1.059,0.289-2.166,1.347-2.481c1.056-0.315,2.175,0.293,2.49,1.352     c0.772,2.587-1.134,8.386-4.446,9.76C78.142,76.861,76.497,77.117,74.798,77.117z"/>
		</g>
		<g>
			<path d="M68.593,83.348c-3.153,0-6.488-1.021-8.056-2.743c-1.415-1.572-2.093-5.069-0.816-7.588     c0.66-1.302,2.397-3.417,6.569-3.003c1.1,0.11,1.901,1.091,1.791,2.189s-1.088,1.902-2.189,1.791     c-2.057-0.209-2.455,0.552-2.588,0.802c-0.54,1.016-0.138,2.72,0.202,3.128c0.962,1.057,5.321,1.992,7.731,0.996     c0.837-0.347,1.445-2.06,1.59-3.494c0.111-1.099,1.08-1.904,2.192-1.788c1.099,0.112,1.899,1.093,1.788,2.192     c-0.127,1.251-0.794,5.438-4.04,6.786C71.559,83.115,70.096,83.348,68.593,83.348z"/>
		</g>
	</g>
</g>
<g id="Layer_3">
</g>
</svg>