<?xml version="1.0" encoding="utf-8"?>
<!-- Generator: Adobe Illustrator 16.0.0, SVG Export Plug-In . SVG Version: 6.00 Build 0)  -->
<!DOCTYPE svg PUBLIC "-//W3C//DTD SVG 1.1//EN" "http://www.w3.org/Graphics/SVG/1.1/DTD/svg11.dtd">
<svg version="1.1" id="Layer_1" xmlns="http://www.w3.org/2000/svg" xmlns:xlink="http://www.w3.org/1999/xlink" x="0px" y="0px"
	 width="150px" height="50px" viewBox="0 0 150 50" enable-background="new 0 0 150 50" xml:space="preserve">
<g>
	<path fill="#010101" d="M10.305,42.434c-3.482,0-6.31-4.796-6.31-10.704c0-5.907,2.829-10.698,6.31-10.698h11.583
		c-3.485,0-6.31,4.791-6.31,10.698c0,5.908,2.825,10.704,6.31,10.704H10.305z"/>
	<path fill="#010101" d="M21.9,43.726c-0.004-0.001-0.008-0.001-0.013,0H10.305c-4.263,0-7.601-5.27-7.601-11.996
		c0-6.723,3.338-11.989,7.601-11.989h11.583c0.713,0,1.292,0.578,1.292,1.291s-0.579,1.292-1.292,1.292
		c-2.72,0-5.019,4.308-5.019,9.406c0,5.103,2.299,9.414,5.019,9.414c0.002-0.001,0.004,0,0.006,0H21.9
		c0.713,0,1.292,0.578,1.292,1.29C23.191,43.146,22.613,43.726,21.9,43.726z M10.305,22.322c-2.721,0-5.019,4.308-5.019,9.407
		c0,5.102,2.298,9.413,5.019,9.413h6.818c-1.739-2.18-2.836-5.557-2.836-9.413c0-3.854,1.097-7.228,2.836-9.407H10.305z"/>
</g>
<g>
	<path fill="#010101" d="M30.87,46.371c-2.079,0-4.017-0.231-5.089-0.479c-4.556-1.053-6.082-5.437-6.252-7.607
		c-0.056-0.711,0.475-1.331,1.186-1.388c0.715-0.055,1.333,0.475,1.389,1.188c0.016,0.174,0.426,4.405,4.26,5.293
		c2.821,0.652,8.468,0.615,10.104-0.66c0.561-0.438,1.373-0.341,1.813,0.222c0.439,0.562,0.339,1.374-0.223,1.813
		C36.479,45.985,33.557,46.371,30.87,46.371z"/>
</g>
<g>
	<path fill="#010101" d="M30.467,34.103c-0.611,0-1.153-0.436-1.268-1.058c-0.128-0.702,0.335-1.374,1.037-1.503
		c0.132-0.027,3.479-0.733,4.938-4.651c1.752-4.71-1.692-9.156-1.727-9.2c-0.376-0.475-0.372-1.151,0.012-1.62
		c1.591-1.945,1.9-3.817,1.88-5.045c-0.01-0.45-0.207-2.843-3.171-5.279C30.56,4.43,29.924,4.404,29.054,4.8
		c0.055,0.439,0.441,1.339,0.683,1.904c0.461,1.075,0.939,2.188,0.909,3.188c-0.046,1.644-0.146,5.067-3.177,9.214
		c-2.977,4.094-8.723,5.134-8.966,5.177c-0.704,0.118-1.371-0.348-1.493-1.051c-0.123-0.702,0.347-1.37,1.049-1.493
		c0.063-0.012,4.971-0.918,7.323-4.154c2.561-3.503,2.637-6.173,2.683-7.769c0.013-0.432-0.383-1.354-0.701-2.095
		c-0.7-1.632-1.759-4.1,0.359-5.148c2.398-1.192,4.167-0.391,6.081,1.175c3.744,3.077,4.095,6.31,4.116,7.228
		c0.02,1.23-0.214,3.531-1.872,5.939c1.125,1.769,3.319,6.104,1.544,10.875c-1.984,5.333-6.692,6.255-6.891,6.29
		C30.624,34.096,30.545,34.103,30.467,34.103z"/>
</g>
<g>
	<g>
		<path fill="#010101" d="M47.399,35.416c-2.659,0-5.713-0.694-6.878-1.984c-1.002-1.104-1.44-3.482-0.462-5.126
			c0.538-0.9,1.935-2.295,5.261-1.479c0.693,0.171,1.116,0.87,0.946,1.562c-0.17,0.693-0.873,1.114-1.562,0.946
			c-0.735-0.179-2.026-0.381-2.427,0.292c-0.388,0.652-0.087,1.804,0.156,2.07c0.757,0.838,5.385,1.628,7.353,0.812
			c0.701-0.286,1.599-0.816,1.906-1.712c0.291-0.843,0.051-1.957-0.717-3.309c-0.352-0.62-0.135-1.408,0.485-1.76
			c0.622-0.353,1.408-0.136,1.76,0.484c1.15,2.023,1.458,3.851,0.913,5.427c-0.493,1.431-1.655,2.557-3.363,3.258
			C49.925,35.248,48.71,35.416,47.399,35.416z"/>
	</g>
	<g>
		<path fill="#010101" d="M47.037,29.58c-2.607,0.001-5.599-0.778-6.73-2.032c-0.974-1.083-1.408-3.303-0.507-4.883
			c0.507-0.89,1.854-2.284,5.162-1.618c0.7,0.141,1.153,0.821,1.011,1.52c-0.141,0.699-0.822,1.149-1.519,1.012
			c-0.594-0.119-2.018-0.322-2.411,0.366c-0.337,0.591-0.045,1.623,0.183,1.877c0.753,0.833,5.396,1.693,6.987,0.833
			c1.143-0.618,2.05-2.768,1.556-4.719c-0.62-2.443-3.189-3.788-7.238-3.788c-0.713,0-1.292-0.579-1.292-1.291
			c0-0.713,0.578-1.292,1.292-1.292c7.48,0,9.305,4.012,9.741,5.736c0.749,2.955-0.521,6.374-2.828,7.624
			C49.61,29.375,48.373,29.58,47.037,29.58z"/>
	</g>
	<g>
		<path fill="#010101" d="M44.559,41.692c-2.333,0-4.828-0.749-5.951-1.991c-1.017-1.121-1.51-3.648-0.585-5.475
			c0.471-0.934,1.716-2.455,4.736-2.141c0.709,0.071,1.225,0.706,1.152,1.415c-0.072,0.709-0.698,1.232-1.416,1.152
			c-1.714-0.175-2.054,0.512-2.167,0.737c-0.443,0.877-0.091,2.261,0.195,2.577c0.863,0.955,4.271,1.557,6.077,0.816
			c0.736-0.307,1.529-2.509,1.379-3.185c-0.203-0.684,0.186-1.398,0.87-1.603c0.681-0.202,1.403,0.189,1.607,0.874
			c0.498,1.67-0.733,5.413-2.871,6.3C46.717,41.527,45.655,41.692,44.559,41.692z"/>
	</g>
	<g>
		<path fill="#010101" d="M40.553,45.714c-2.036,0-4.188-0.658-5.201-1.771c-0.913-1.015-1.352-3.271-0.527-4.897
			c0.426-0.843,1.548-2.206,4.241-1.939c0.71,0.071,1.228,0.704,1.157,1.412c-0.072,0.71-0.703,1.229-1.413,1.157
			c-1.329-0.136-1.585,0.356-1.671,0.518c-0.349,0.656-0.089,1.756,0.13,2.019c0.621,0.683,3.436,1.287,4.991,0.644
			c0.541-0.224,0.933-1.33,1.027-2.256c0.071-0.709,0.697-1.229,1.416-1.153c0.709,0.072,1.225,0.705,1.154,1.414
			c-0.083,0.809-0.512,3.511-2.607,4.381C42.467,45.563,41.522,45.714,40.553,45.714z"/>
	</g>
</g>
<text transform="matrix(1 0 0 1 57.5479 18.9761)"><tspan x="0" y="0" font-family="'MyriadPro-Regular'" font-size="18">Approve</tspan><tspan x="0" y="21.6" font-family="'MyriadPro-Regular'" font-size="18">For Me</tspan></text>
</svg>
